<svg width="49" height="49" viewBox="0 0 49 49" fill="none" xmlns="http://www.w3.org/2000/svg">
<path d="M26.8411 14.2509C23.9678 13.6894 20.9951 13.9344 18.2525 14.9586C18.1193 15.0114 17.9978 15.0898 17.895 15.1895C17.7921 15.2892 17.7099 15.4081 17.653 15.5396C17.5382 15.805 17.5335 16.1053 17.64 16.3742C17.7464 16.6431 17.9554 16.8588 18.2209 16.9736C18.4864 17.0885 18.7866 17.0932 19.0555 16.9867C21.417 16.0938 23.9786 15.8678 26.46 16.3334C26.6054 16.3717 26.7572 16.3794 26.9058 16.3561C27.0544 16.3328 27.1965 16.2789 27.3233 16.198C27.4501 16.117 27.5587 16.0106 27.6423 15.8856C27.7259 15.7606 27.7827 15.6196 27.8091 15.4715C27.8355 15.3234 27.8309 15.1715 27.7957 15.0253C27.7605 14.8791 27.6953 14.7417 27.6044 14.6219C27.5134 14.5021 27.3987 14.4025 27.2673 14.3292C27.1359 14.256 26.9908 14.2108 26.8411 14.1964V14.2509Z" fill="#4949D7"/>
<path d="M34.545 24.5953C35.5673 24.5953 36.3961 23.7665 36.3961 22.7442C36.3961 21.7218 35.5673 20.8931 34.545 20.8931C33.5226 20.8931 32.6938 21.7218 32.6938 22.7442C32.6938 23.7665 33.5226 24.5953 34.545 24.5953Z" fill="#4949D7"/>
<path d="M48.3331 25.3575C48.2069 25.1708 48.0365 25.0184 47.8369 24.9139C47.6374 24.8094 47.415 24.756 47.1897 24.7586C46.0901 24.6059 45.0811 24.0653 44.345 23.2341C42.9285 21.6858 41.7246 19.9556 40.7653 18.0891L44.6853 11.9641C44.9232 11.6092 45.0689 11.2006 45.1093 10.7752C45.1497 10.3498 45.0835 9.92112 44.9167 9.52774C44.7496 9.16986 44.4972 8.85854 44.1815 8.62119C43.8658 8.38384 43.4966 8.22774 43.1064 8.16663C40.6136 7.83068 38.0764 8.18372 35.77 9.18746C34.4482 9.76968 33.2045 10.515 32.0678 11.4061C29.8415 10.4078 27.4709 9.76921 25.0445 9.51413C15.3942 8.57496 6.57419 14.8361 5.44447 23.1389C5.0042 22.9408 4.60989 22.6534 4.28655 22.2949C3.9632 21.9364 3.71788 21.5147 3.56614 21.0564C3.46909 20.7421 3.43595 20.4116 3.46868 20.0843C3.50141 19.757 3.59934 19.4396 3.75669 19.1508C3.89781 18.9083 4.09948 18.7066 4.34197 18.5655C4.50731 18.4654 4.65131 18.3337 4.76576 18.178C4.88021 18.0222 4.96286 17.8455 5.00899 17.6578C5.05512 17.4701 5.06383 17.2752 5.03463 17.0841C5.00542 16.893 4.93887 16.7096 4.83878 16.5443C4.73868 16.3789 4.607 16.2349 4.45125 16.1205C4.2955 16.006 4.11873 15.9234 3.93104 15.8773C3.74335 15.8311 3.54842 15.8224 3.35736 15.8516C3.1663 15.8808 2.98287 15.9474 2.81753 16.0475C2.15864 16.4519 1.61491 17.0191 1.23864 17.6944C0.88881 18.3282 0.6689 19.0254 0.591775 19.7453C0.51465 20.4651 0.58186 21.1931 0.789472 21.8866C1.04502 22.727 1.4688 23.5067 2.03504 24.1783C2.60129 24.8498 3.29818 25.3992 4.08336 25.793L5.33558 26.4191C5.49202 29.7324 6.33561 32.977 7.81281 35.9469L8.04419 36.4641C9.22474 38.9609 10.7305 41.2905 12.5222 43.3922C12.6498 43.5374 12.8068 43.6537 12.9828 43.7335C13.1588 43.8133 13.3498 43.8547 13.5431 43.855H19.6953C19.9182 43.8539 20.1375 43.798 20.3338 43.6923C20.5301 43.5866 20.6974 43.4344 20.821 43.2489C20.9447 43.0634 21.0209 42.8504 21.043 42.6285C21.065 42.4067 21.0322 42.1828 20.9475 41.9766L20.4167 40.7516L22.0228 40.9286C23.8332 41.1075 25.6568 41.1075 27.4672 40.9286C27.9709 41.7452 28.5153 42.5619 29.1142 43.365C29.2395 43.5365 29.4033 43.6763 29.5924 43.7732C29.7815 43.8702 29.9906 43.9214 30.2031 43.923H36.1103C36.335 43.9228 36.5561 43.8671 36.7539 43.7606C36.9518 43.6542 37.1202 43.5005 37.2442 43.3131C37.3682 43.1258 37.4439 42.9107 37.4645 42.687C37.4852 42.4633 37.4501 42.2379 37.3625 42.0311C37.1311 41.4866 36.8997 40.9014 36.7228 40.3977C36.4778 39.6764 36.2872 39.0366 36.1375 38.4241C37.6407 37.6126 39.0203 36.5905 40.2345 35.3889C41.5906 35.5528 42.9616 35.5528 44.3178 35.3889C44.5531 35.3533 44.7749 35.2566 44.9612 35.1086C45.1475 34.9605 45.2917 34.7662 45.3795 34.545L48.4556 26.6369C48.5421 26.4301 48.5762 26.205 48.5549 25.9818C48.5335 25.7586 48.4573 25.5441 48.3331 25.3575ZM43.1881 32.7619C42.1196 32.8227 41.0476 32.7726 39.9895 32.6122C38.7845 32.4086 37.6212 32.0086 36.5459 31.428C36.2274 31.2701 35.8598 31.243 35.5216 31.3526C35.1835 31.4622 34.9016 31.6997 34.7363 32.0144C34.5709 32.329 34.5353 32.6959 34.6369 33.0365C34.7385 33.3772 34.9693 33.6645 35.28 33.8372C35.8489 34.1354 36.4352 34.3991 37.0359 34.6266C36.2936 35.2603 35.4696 35.7914 34.5859 36.2055L33.1431 36.8589C33.1431 36.8589 33.81 39.8397 34.2592 41.16H31.0198C30.6931 40.6972 29.0461 37.9477 29.0461 37.9477L28.1342 38.0702C26.2186 38.3465 24.2776 38.4013 22.3495 38.2336C21.4511 38.1519 19.9539 37.9614 18.7834 37.7572L16.6736 37.3897C16.6736 37.3897 17.5311 40.6972 17.6945 41.1191H14.1828C12.7483 39.3627 11.5326 37.4385 10.5623 35.3889L10.3172 34.858C8.54876 31.4538 7.80194 27.611 8.16669 23.7922C8.90169 16.728 16.4967 11.3925 24.7586 12.1683C27.162 12.4377 29.5011 13.1192 31.6731 14.1827L32.517 14.5775L33.1975 13.9377C34.2574 12.9906 35.4553 12.2104 36.75 11.6239C38.4631 10.8809 40.3343 10.5768 42.1945 10.7391L37.5939 17.9394L37.9342 18.62C39.1229 21.0143 40.6393 23.2315 42.4395 25.2077C43.2756 26.0249 44.2657 26.668 45.3522 27.0997L43.1881 32.7619Z" fill="#4949D7"/>
</svg>
