<svg width="51" height="51" viewBox="0 0 51 51" fill="none" xmlns="http://www.w3.org/2000/svg">
<path d="M46.3717 15.7909C46.1763 15.5084 45.9153 15.2775 45.6111 15.118C45.3069 14.9585 44.9685 14.8751 44.625 14.875H15.5826L13.1304 8.98876C12.8088 8.21361 12.2644 7.55138 11.566 7.08606C10.8676 6.62073 10.0468 6.37326 9.20763 6.37501H4.25V10.625H9.20763L19.2886 34.8181C19.4501 35.2052 19.7225 35.5359 20.0715 35.7684C20.4206 36.001 20.8306 36.125 21.25 36.125H38.25C39.1361 36.125 39.9287 35.5746 40.2411 34.748L46.6161 17.748C46.7366 17.4263 46.7773 17.0802 46.7348 16.7394C46.6922 16.3985 46.5676 16.0731 46.3717 15.7909ZM36.7774 31.875H22.6674L17.3549 19.125H41.5586L36.7774 31.875Z" fill="#4949D7"/>
<path d="M22.3125 44.625C24.0729 44.625 25.5 43.1979 25.5 41.4375C25.5 39.6771 24.0729 38.25 22.3125 38.25C20.5521 38.25 19.125 39.6771 19.125 41.4375C19.125 43.1979 20.5521 44.625 22.3125 44.625Z" fill="#4949D7"/>
<path d="M37.1875 44.625C38.9479 44.625 40.375 43.1979 40.375 41.4375C40.375 39.6771 38.9479 38.25 37.1875 38.25C35.4271 38.25 34 39.6771 34 41.4375C34 43.1979 35.4271 44.625 37.1875 44.625Z" fill="#4949D7"/>
</svg>
