<svg width="44" height="44" viewBox="0 0 44 44" fill="none" xmlns="http://www.w3.org/2000/svg">
<path d="M43.2324 24.5862C41.8316 36.6325 31.0165 45.2675 19.1471 43.847C7.2677 42.4112 -1.25779 31.4494 0.158105 19.4133C1.55894 7.36703 12.3689 -1.268 24.2484 0.152502C28.0241 0.605637 31.4835 2.02614 34.3705 4.14926L32.4475 6.30293L30.4291 8.56861L30.3136 8.70607C28.3404 7.37722 26.0408 6.4964 23.5404 6.19092C14.9547 5.16754 7.13213 11.4147 6.11289 20.121C5.08863 28.8375 11.2493 36.7598 19.8501 37.7933C28.4458 38.8269 36.2584 32.5797 37.2776 23.8632C37.5588 21.4855 37.3027 19.1587 36.5998 17.0153L37.2625 16.277L39.3964 13.8739L41.0332 12.0409C42.911 15.7882 43.7546 20.1057 43.2324 24.5862Z" fill="#4949D7"/>
<path d="M39.9362 10.1166L37.8475 12.4638L35.7137 14.8669L24.4166 27.5598C22.7196 29.464 19.8175 29.5913 17.9648 27.8398L13.4711 23.6598C12.2611 22.5142 12.1908 20.5897 13.3205 19.3575C14.4502 18.1305 16.3481 18.0592 17.5631 19.2048L20.9623 22.3513L31.9731 9.97916L33.9865 7.71348L35.9898 5.46307C37.5111 6.82248 38.8417 8.39064 39.9362 10.1166Z" fill="#3AD6DE"/>
</svg>
