<svg width="45" height="45" viewBox="0 0 45 45" fill="none" xmlns="http://www.w3.org/2000/svg">
<path d="M29.5312 19.6875C29.5312 19.3145 29.3831 18.9569 29.1194 18.6931C28.8556 18.4294 28.498 18.2812 28.125 18.2812C27.752 18.2812 27.3944 18.4294 27.1306 18.6931C26.8669 18.9569 26.7188 19.3145 26.7188 19.6875V23.9062C26.7188 24.2792 26.8669 24.6369 27.1306 24.9006C27.3944 25.1643 27.752 25.3125 28.125 25.3125C28.498 25.3125 28.8556 25.1643 29.1194 24.9006C29.3831 24.6369 29.5312 24.2792 29.5312 23.9062V19.6875Z" fill="#4949D7"/>
<path d="M22.5 18.2812C22.873 18.2812 23.2306 18.4294 23.4944 18.6931C23.7581 18.9569 23.9062 19.3145 23.9062 19.6875V23.9062C23.9062 24.2792 23.7581 24.6369 23.4944 24.9006C23.2306 25.1643 22.873 25.3125 22.5 25.3125C22.127 25.3125 21.7694 25.1643 21.5056 24.9006C21.2419 24.6369 21.0938 24.2792 21.0938 23.9062V19.6875C21.0938 19.3145 21.2419 18.9569 21.5056 18.6931C21.7694 18.4294 22.127 18.2812 22.5 18.2812Z" fill="#4949D7"/>
<path d="M18.2812 19.6875C18.2812 19.3145 18.1331 18.9569 17.8694 18.6931C17.6056 18.4294 17.248 18.2812 16.875 18.2812C16.502 18.2812 16.1444 18.4294 15.8806 18.6931C15.6169 18.9569 15.4688 19.3145 15.4688 19.6875V23.9062C15.4688 24.2792 15.6169 24.6369 15.8806 24.9006C16.1444 25.1643 16.502 25.3125 16.875 25.3125C17.248 25.3125 17.6056 25.1643 17.8694 24.9006C18.1331 24.6369 18.2812 24.2792 18.2812 23.9062V19.6875Z" fill="#4949D7"/>
<path d="M11.25 28.125C11.623 28.125 11.9806 28.2732 12.2444 28.5369C12.5081 28.8006 12.6562 29.1583 12.6562 29.5312V33.75C12.6562 34.123 12.5081 34.4806 12.2444 34.7444C11.9806 35.0081 11.623 35.1562 11.25 35.1562C10.877 35.1562 10.5194 35.0081 10.2556 34.7444C9.99191 34.4806 9.84375 34.123 9.84375 33.75V29.5312C9.84375 29.1583 9.99191 28.8006 10.2556 28.5369C10.5194 28.2732 10.877 28.125 11.25 28.125Z" fill="#4949D7"/>
<path d="M35.1562 29.5312C35.1562 29.1583 35.0081 28.8006 34.7444 28.5369C34.4806 28.2732 34.123 28.125 33.75 28.125C33.377 28.125 33.0194 28.2732 32.7556 28.5369C32.4919 28.8006 32.3438 29.1583 32.3438 29.5312V33.75C32.3438 34.123 32.4919 34.4806 32.7556 34.7444C33.0194 35.0081 33.377 35.1562 33.75 35.1562C34.123 35.1562 34.4806 35.0081 34.7444 34.7444C35.0081 34.4806 35.1562 34.123 35.1562 33.75V29.5312Z" fill="#4949D7"/>
<path d="M22.5 2.8125H29.063C29.5805 2.8125 30.0009 3.23156 30.0009 3.75047V7.49953C30.0009 7.7483 29.9021 7.98687 29.7262 8.16278C29.5503 8.33868 29.3117 8.4375 29.063 8.4375H23.9062V9.92109C30.2344 10.62 35.1562 15.9848 35.1562 22.5H37.9688C39.0876 22.5 40.1607 22.9445 40.9519 23.7356C41.743 24.5268 42.1875 25.5999 42.1875 26.7188V39.375C42.1875 39.748 42.0393 40.1056 41.7756 40.3694C41.5119 40.6331 41.1542 40.7812 40.7812 40.7812H4.21875C3.84579 40.7812 3.4881 40.6331 3.22438 40.3694C2.96066 40.1056 2.8125 39.748 2.8125 39.375V26.7188C2.8125 25.5999 3.25697 24.5268 4.04814 23.7356C4.83931 22.9445 5.91237 22.5 7.03125 22.5H9.84375C9.84375 15.9848 14.7656 10.62 21.0938 9.92109V4.21875C21.0938 3.84579 21.2419 3.4881 21.5056 3.22438C21.7694 2.96066 22.127 2.8125 22.5 2.8125ZM22.5 12.6562C19.8893 12.6562 17.3855 13.6934 15.5394 15.5394C13.6934 17.3855 12.6562 19.8893 12.6562 22.5V23.9062C12.6562 24.2792 12.5081 24.6369 12.2444 24.9006C11.9806 25.1643 11.623 25.3125 11.25 25.3125H7.03125C6.65829 25.3125 6.3006 25.4607 6.03688 25.7244C5.77316 25.9881 5.625 26.3458 5.625 26.7188V37.9688H17.5781V33.75C17.5781 33.377 17.7263 33.0194 17.99 32.7556C18.2537 32.4919 18.6114 32.3438 18.9844 32.3438H26.0156C26.3886 32.3438 26.7463 32.4919 27.01 32.7556C27.2737 33.0194 27.4219 33.377 27.4219 33.75V37.9688H39.375V26.7188C39.375 26.3458 39.2268 25.9881 38.9631 25.7244C38.6994 25.4607 38.3417 25.3125 37.9688 25.3125H33.75C33.377 25.3125 33.0194 25.1643 32.7556 24.9006C32.4919 24.6369 32.3438 24.2792 32.3438 23.9062V22.5C32.3438 19.8893 31.3066 17.3855 29.4606 15.5394C27.6145 13.6934 25.1107 12.6562 22.5 12.6562ZM24.6094 35.1562H20.3906V37.9688H24.6094V35.1562Z" fill="#4949D7"/>
</svg>
