<svg width="36" height="36" viewBox="0 0 36 36" fill="none" xmlns="http://www.w3.org/2000/svg">
<path d="M22.5 36H13.5C12.7046 35.9992 11.942 35.6829 11.3796 35.1204C10.8171 34.558 10.5008 33.7954 10.5 33V25.5H3C2.20459 25.4992 1.44199 25.1829 0.879557 24.6204C0.31712 24.058 0.000794215 23.2954 0 22.5V13.5C0.000794215 12.7046 0.31712 11.942 0.879557 11.3796C1.44199 10.8171 2.20459 10.5008 3 10.5H10.5V3C10.5008 2.20459 10.8171 1.44199 11.3796 0.879557C11.942 0.31712 12.7046 0.000794215 13.5 0H22.5C23.2954 0.000794215 24.058 0.31712 24.6204 0.879557C25.1829 1.44199 25.4992 2.20459 25.5 3V10.5H33C33.7954 10.5008 34.558 10.8171 35.1204 11.3796C35.6829 11.942 35.9992 12.7046 36 13.5V22.5C35.9988 23.2953 35.6824 24.0577 35.12 24.62C34.5577 25.1824 33.7953 25.4988 33 25.5H25.5V33C25.4988 33.7953 25.1824 34.5577 24.62 35.12C24.0577 35.6824 23.2953 35.9988 22.5 36ZM3 13.5V22.5H13.5V33H22.5V22.5H33V13.5H22.5V3H13.5V13.5H3Z" fill="#4949D7"/>
</svg>
